<mxfile host="Electron" agent="Mozilla/5.0 (Windows NT 10.0; Win64; x64) AppleWebKit/537.36 (KHTML, like Gecko) draw.io/24.7.17 Chrome/128.0.6613.36 Electron/32.0.1 Safari/537.36" version="24.7.17">
  <diagram name="Page-1" id="_951d7OEIctJn5ykld_Z">
    <mxGraphModel dx="989" dy="582" grid="1" gridSize="10" guides="1" tooltips="1" connect="1" arrows="1" fold="1" page="1" pageScale="1" pageWidth="850" pageHeight="1100" math="0" shadow="0">
      <root>
        <mxCell id="0" />
        <mxCell id="1" parent="0" />
        <mxCell id="iKLxPPUA8jMq7jzH-3Aa-2" value="INST&lt;div&gt;REG&lt;/div&gt;" style="rounded=0;whiteSpace=wrap;html=1;" vertex="1" parent="1">
          <mxGeometry x="190" y="370" width="40" height="80" as="geometry" />
        </mxCell>
        <mxCell id="iKLxPPUA8jMq7jzH-3Aa-3" value="" style="rounded=0;whiteSpace=wrap;html=1;" vertex="1" parent="1">
          <mxGeometry x="240" y="370" width="40" height="80" as="geometry" />
        </mxCell>
        <mxCell id="iKLxPPUA8jMq7jzH-3Aa-4" value="" style="endArrow=none;html=1;rounded=0;" edge="1" parent="1">
          <mxGeometry width="50" height="50" relative="1" as="geometry">
            <mxPoint x="160" y="380" as="sourcePoint" />
            <mxPoint x="190" y="380" as="targetPoint" />
          </mxGeometry>
        </mxCell>
        <mxCell id="iKLxPPUA8jMq7jzH-3Aa-5" value="" style="endArrow=none;html=1;rounded=0;" edge="1" parent="1">
          <mxGeometry width="50" height="50" relative="1" as="geometry">
            <mxPoint x="160" y="400" as="sourcePoint" />
            <mxPoint x="190" y="400" as="targetPoint" />
          </mxGeometry>
        </mxCell>
        <mxCell id="iKLxPPUA8jMq7jzH-3Aa-6" value="" style="endArrow=none;html=1;rounded=0;" edge="1" parent="1">
          <mxGeometry width="50" height="50" relative="1" as="geometry">
            <mxPoint x="160" y="420" as="sourcePoint" />
            <mxPoint x="190" y="420" as="targetPoint" />
          </mxGeometry>
        </mxCell>
        <mxCell id="iKLxPPUA8jMq7jzH-3Aa-7" value="" style="endArrow=none;html=1;rounded=0;" edge="1" parent="1">
          <mxGeometry width="50" height="50" relative="1" as="geometry">
            <mxPoint x="160" y="440" as="sourcePoint" />
            <mxPoint x="190" y="440" as="targetPoint" />
          </mxGeometry>
        </mxCell>
        <mxCell id="iKLxPPUA8jMq7jzH-3Aa-8" value="" style="endArrow=none;html=1;rounded=0;" edge="1" parent="1">
          <mxGeometry width="50" height="50" relative="1" as="geometry">
            <mxPoint x="230" y="379.88" as="sourcePoint" />
            <mxPoint x="240" y="379.88" as="targetPoint" />
          </mxGeometry>
        </mxCell>
        <mxCell id="iKLxPPUA8jMq7jzH-3Aa-9" value="" style="endArrow=none;html=1;rounded=0;" edge="1" parent="1">
          <mxGeometry width="50" height="50" relative="1" as="geometry">
            <mxPoint x="230" y="399.88" as="sourcePoint" />
            <mxPoint x="240" y="399.88" as="targetPoint" />
          </mxGeometry>
        </mxCell>
        <mxCell id="iKLxPPUA8jMq7jzH-3Aa-10" value="" style="endArrow=none;html=1;rounded=0;" edge="1" parent="1">
          <mxGeometry width="50" height="50" relative="1" as="geometry">
            <mxPoint x="230" y="419.88" as="sourcePoint" />
            <mxPoint x="240" y="419.88" as="targetPoint" />
          </mxGeometry>
        </mxCell>
        <mxCell id="iKLxPPUA8jMq7jzH-3Aa-11" value="" style="endArrow=none;html=1;rounded=0;" edge="1" parent="1">
          <mxGeometry width="50" height="50" relative="1" as="geometry">
            <mxPoint x="230" y="439.88" as="sourcePoint" />
            <mxPoint x="240" y="439.88" as="targetPoint" />
          </mxGeometry>
        </mxCell>
        <mxCell id="iKLxPPUA8jMq7jzH-3Aa-12" value="RST" style="rounded=0;whiteSpace=wrap;html=1;" vertex="1" parent="1">
          <mxGeometry x="190" y="460" width="40" height="40" as="geometry" />
        </mxCell>
        <mxCell id="iKLxPPUA8jMq7jzH-3Aa-13" value="" style="endArrow=none;html=1;rounded=0;" edge="1" parent="1">
          <mxGeometry width="50" height="50" relative="1" as="geometry">
            <mxPoint x="160" y="479.83" as="sourcePoint" />
            <mxPoint x="190" y="479.83" as="targetPoint" />
          </mxGeometry>
        </mxCell>
        <mxCell id="iKLxPPUA8jMq7jzH-3Aa-14" value="D&lt;div style=&quot;font-size: 10px;&quot;&gt;&lt;br style=&quot;font-size: 10px;&quot;&gt;&lt;/div&gt;&lt;div style=&quot;font-size: 10px;&quot;&gt;C&lt;/div&gt;" style="rounded=0;whiteSpace=wrap;html=1;fontSize=10;align=left;" vertex="1" parent="1">
          <mxGeometry x="390" y="340" width="20" height="50" as="geometry" />
        </mxCell>
        <mxCell id="iKLxPPUA8jMq7jzH-3Aa-15" value="" style="endArrow=none;html=1;rounded=0;" edge="1" parent="1">
          <mxGeometry width="50" height="50" relative="1" as="geometry">
            <mxPoint x="280" y="379.86" as="sourcePoint" />
            <mxPoint x="390" y="379.86" as="targetPoint" />
          </mxGeometry>
        </mxCell>
        <mxCell id="iKLxPPUA8jMq7jzH-3Aa-18" value="" style="endArrow=none;html=1;rounded=0;" edge="1" parent="1">
          <mxGeometry width="50" height="50" relative="1" as="geometry">
            <mxPoint x="280" y="439.78" as="sourcePoint" />
            <mxPoint x="310" y="439.78" as="targetPoint" />
          </mxGeometry>
        </mxCell>
        <mxCell id="iKLxPPUA8jMq7jzH-3Aa-19" value="" style="endArrow=none;dashed=1;html=1;rounded=0;jumpSize=6;startSize=6;strokeWidth=1;dashPattern=8 8;" edge="1" parent="1">
          <mxGeometry width="50" height="50" relative="1" as="geometry">
            <mxPoint x="300" y="439.95" as="sourcePoint" />
            <mxPoint x="300" y="379.95" as="targetPoint" />
          </mxGeometry>
        </mxCell>
        <mxCell id="iKLxPPUA8jMq7jzH-3Aa-20" value="RESULTS REG. (RR)" style="text;html=1;align=center;verticalAlign=middle;whiteSpace=wrap;rounded=0;" vertex="1" parent="1">
          <mxGeometry x="370" y="390" width="60" height="30" as="geometry" />
        </mxCell>
        <mxCell id="iKLxPPUA8jMq7jzH-3Aa-21" value="D&lt;div style=&quot;font-size: 10px;&quot;&gt;&lt;br style=&quot;font-size: 10px;&quot;&gt;&lt;/div&gt;&lt;div style=&quot;font-size: 10px;&quot;&gt;C&lt;/div&gt;" style="rounded=0;whiteSpace=wrap;html=1;fontSize=10;align=left;" vertex="1" parent="1">
          <mxGeometry x="390" y="250" width="20" height="50" as="geometry" />
        </mxCell>
        <mxCell id="iKLxPPUA8jMq7jzH-3Aa-22" value="CARRY REG.&amp;nbsp;" style="text;html=1;align=center;verticalAlign=middle;whiteSpace=wrap;rounded=0;" vertex="1" parent="1">
          <mxGeometry x="370" y="300" width="60" height="30" as="geometry" />
        </mxCell>
        <mxCell id="iKLxPPUA8jMq7jzH-3Aa-24" value="" style="verticalLabelPosition=bottom;shadow=0;dashed=0;align=center;html=1;verticalAlign=top;shape=mxgraph.electrical.logic_gates.inverter_2" vertex="1" parent="1">
          <mxGeometry x="520" y="370" width="30" height="20" as="geometry" />
        </mxCell>
        <mxCell id="iKLxPPUA8jMq7jzH-3Aa-27" value="ALU" style="shape=hexagon;perimeter=hexagonPerimeter2;whiteSpace=wrap;html=1;fixedSize=1;size=20;" vertex="1" parent="1">
          <mxGeometry x="270" y="230" width="80" height="60" as="geometry" />
        </mxCell>
        <mxCell id="iKLxPPUA8jMq7jzH-3Aa-28" value="" style="endArrow=classic;html=1;rounded=0;" edge="1" parent="1">
          <mxGeometry width="50" height="50" relative="1" as="geometry">
            <mxPoint x="310" y="290" as="sourcePoint" />
            <mxPoint x="390" y="350" as="targetPoint" />
            <Array as="points">
              <mxPoint x="310" y="350" />
            </Array>
          </mxGeometry>
        </mxCell>
        <mxCell id="iKLxPPUA8jMq7jzH-3Aa-29" value="" style="endArrow=classic;html=1;rounded=0;" edge="1" parent="1">
          <mxGeometry width="50" height="50" relative="1" as="geometry">
            <mxPoint x="350" y="259.83" as="sourcePoint" />
            <mxPoint x="390" y="259.83" as="targetPoint" />
          </mxGeometry>
        </mxCell>
        <mxCell id="iKLxPPUA8jMq7jzH-3Aa-30" value="" style="endArrow=none;html=1;rounded=0;" edge="1" parent="1">
          <mxGeometry width="50" height="50" relative="1" as="geometry">
            <mxPoint x="370" y="380" as="sourcePoint" />
            <mxPoint x="390" y="290" as="targetPoint" />
            <Array as="points">
              <mxPoint x="370.33" y="290" />
            </Array>
          </mxGeometry>
        </mxCell>
        <mxCell id="iKLxPPUA8jMq7jzH-3Aa-31" value="" style="endArrow=classic;html=1;rounded=0;" edge="1" parent="1">
          <mxGeometry width="50" height="50" relative="1" as="geometry">
            <mxPoint x="410" y="350" as="sourcePoint" />
            <mxPoint x="310" y="230" as="targetPoint" />
            <Array as="points">
              <mxPoint x="450" y="350" />
              <mxPoint x="450" y="190" />
              <mxPoint x="310" y="190" />
            </Array>
          </mxGeometry>
        </mxCell>
        <mxCell id="iKLxPPUA8jMq7jzH-3Aa-33" value="" style="endArrow=classic;html=1;rounded=0;" edge="1" parent="1">
          <mxGeometry width="50" height="50" relative="1" as="geometry">
            <mxPoint x="410" y="260" as="sourcePoint" />
            <mxPoint x="330" y="230" as="targetPoint" />
            <Array as="points">
              <mxPoint x="430" y="260" />
              <mxPoint x="430" y="210" />
              <mxPoint x="330" y="210" />
            </Array>
          </mxGeometry>
        </mxCell>
        <mxCell id="iKLxPPUA8jMq7jzH-3Aa-34" value="MUX" style="rounded=0;whiteSpace=wrap;html=1;" vertex="1" parent="1">
          <mxGeometry x="470" y="300" width="40" height="30" as="geometry" />
        </mxCell>
        <mxCell id="iKLxPPUA8jMq7jzH-3Aa-35" value="" style="endArrow=classic;html=1;rounded=0;" edge="1" parent="1">
          <mxGeometry width="50" height="50" relative="1" as="geometry">
            <mxPoint x="450" y="350" as="sourcePoint" />
            <mxPoint x="480" y="350" as="targetPoint" />
          </mxGeometry>
        </mxCell>
        <mxCell id="iKLxPPUA8jMq7jzH-3Aa-36" value="" style="endArrow=none;html=1;rounded=0;" edge="1" parent="1">
          <mxGeometry width="50" height="50" relative="1" as="geometry">
            <mxPoint x="480" y="350" as="sourcePoint" />
            <mxPoint x="480" y="330" as="targetPoint" />
          </mxGeometry>
        </mxCell>
        <mxCell id="iKLxPPUA8jMq7jzH-3Aa-37" value="" style="endArrow=classic;html=1;rounded=0;" edge="1" parent="1">
          <mxGeometry width="50" height="50" relative="1" as="geometry">
            <mxPoint x="500" y="380" as="sourcePoint" />
            <mxPoint x="500" y="330" as="targetPoint" />
          </mxGeometry>
        </mxCell>
        <mxCell id="iKLxPPUA8jMq7jzH-3Aa-38" value="" style="endArrow=none;html=1;rounded=0;" edge="1" parent="1">
          <mxGeometry width="50" height="50" relative="1" as="geometry">
            <mxPoint x="410" y="379.86" as="sourcePoint" />
            <mxPoint x="520" y="379.86" as="targetPoint" />
          </mxGeometry>
        </mxCell>
        <mxCell id="iKLxPPUA8jMq7jzH-3Aa-39" value="" style="endArrow=none;html=1;rounded=0;" edge="1" parent="1">
          <mxGeometry width="50" height="50" relative="1" as="geometry">
            <mxPoint x="510" y="310" as="sourcePoint" />
            <mxPoint x="540" y="310" as="targetPoint" />
          </mxGeometry>
        </mxCell>
        <mxCell id="iKLxPPUA8jMq7jzH-3Aa-40" value="" style="endArrow=none;html=1;rounded=0;" edge="1" parent="1">
          <mxGeometry width="50" height="50" relative="1" as="geometry">
            <mxPoint x="510" y="319.86" as="sourcePoint" />
            <mxPoint x="540" y="320" as="targetPoint" />
          </mxGeometry>
        </mxCell>
        <mxCell id="iKLxPPUA8jMq7jzH-3Aa-41" value="STO&lt;div&gt;STOC&lt;/div&gt;" style="text;html=1;align=center;verticalAlign=middle;whiteSpace=wrap;rounded=0;" vertex="1" parent="1">
          <mxGeometry x="525" y="280" width="60" height="30" as="geometry" />
        </mxCell>
        <mxCell id="iKLxPPUA8jMq7jzH-3Aa-42" value="" style="endArrow=none;html=1;rounded=0;" edge="1" parent="1">
          <mxGeometry width="50" height="50" relative="1" as="geometry">
            <mxPoint x="575" y="280" as="sourcePoint" />
            <mxPoint x="585" y="260" as="targetPoint" />
            <Array as="points">
              <mxPoint x="585" y="280" />
            </Array>
          </mxGeometry>
        </mxCell>
        <mxCell id="iKLxPPUA8jMq7jzH-3Aa-43" value="" style="endArrow=none;html=1;rounded=0;" edge="1" parent="1">
          <mxGeometry width="50" height="50" relative="1" as="geometry">
            <mxPoint x="575" y="290" as="sourcePoint" />
            <mxPoint x="595" y="260" as="targetPoint" />
            <Array as="points">
              <mxPoint x="595" y="290" />
            </Array>
          </mxGeometry>
        </mxCell>
        <mxCell id="iKLxPPUA8jMq7jzH-3Aa-44" value="" style="shape=xor;whiteSpace=wrap;html=1;rotation=-90;" vertex="1" parent="1">
          <mxGeometry x="578.59" y="241.73000000000002" width="23.44" height="23.12" as="geometry" />
        </mxCell>
        <mxCell id="iKLxPPUA8jMq7jzH-3Aa-47" value="" style="shape=or;whiteSpace=wrap;html=1;" vertex="1" parent="1">
          <mxGeometry x="260" y="175.71" width="20" height="30" as="geometry" />
        </mxCell>
        <mxCell id="iKLxPPUA8jMq7jzH-3Aa-48" value="D&lt;div style=&quot;font-size: 10px;&quot;&gt;&lt;br style=&quot;font-size: 10px;&quot;&gt;&lt;/div&gt;&lt;div style=&quot;font-size: 10px;&quot;&gt;C&lt;/div&gt;" style="rounded=0;whiteSpace=wrap;html=1;fontSize=10;align=left;" vertex="1" parent="1">
          <mxGeometry x="210" y="188.59" width="30" height="41.41" as="geometry" />
        </mxCell>
        <mxCell id="iKLxPPUA8jMq7jzH-3Aa-49" value="" style="endArrow=none;html=1;rounded=0;" edge="1" parent="1">
          <mxGeometry width="50" height="50" relative="1" as="geometry">
            <mxPoint x="240" y="195.71" as="sourcePoint" />
            <mxPoint x="260" y="195.71" as="targetPoint" />
          </mxGeometry>
        </mxCell>
        <mxCell id="iKLxPPUA8jMq7jzH-3Aa-51" value="" style="endArrow=none;html=1;rounded=0;" edge="1" parent="1">
          <mxGeometry width="50" height="50" relative="1" as="geometry">
            <mxPoint x="250" y="160" as="sourcePoint" />
            <mxPoint x="260" y="180" as="targetPoint" />
            <Array as="points">
              <mxPoint x="250" y="180" />
            </Array>
          </mxGeometry>
        </mxCell>
        <mxCell id="iKLxPPUA8jMq7jzH-3Aa-52" value="" style="endArrow=none;html=1;rounded=0;" edge="1" parent="1">
          <mxGeometry width="50" height="50" relative="1" as="geometry">
            <mxPoint x="190" y="160" as="sourcePoint" />
            <mxPoint x="210" y="200" as="targetPoint" />
            <Array as="points">
              <mxPoint x="190" y="200" />
            </Array>
          </mxGeometry>
        </mxCell>
        <mxCell id="iKLxPPUA8jMq7jzH-3Aa-53" value="" style="endArrow=classic;startArrow=classic;html=1;rounded=0;" edge="1" parent="1">
          <mxGeometry width="50" height="50" relative="1" as="geometry">
            <mxPoint x="190" y="160" as="sourcePoint" />
            <mxPoint x="250" y="160" as="targetPoint" />
          </mxGeometry>
        </mxCell>
        <mxCell id="iKLxPPUA8jMq7jzH-3Aa-54" value="" style="endArrow=none;html=1;rounded=0;" edge="1" parent="1">
          <mxGeometry width="50" height="50" relative="1" as="geometry">
            <mxPoint x="190" y="160" as="sourcePoint" />
            <mxPoint x="160" y="160" as="targetPoint" />
          </mxGeometry>
        </mxCell>
        <mxCell id="iKLxPPUA8jMq7jzH-3Aa-55" value="" style="endArrow=none;html=1;rounded=0;" edge="1" parent="1">
          <mxGeometry width="50" height="50" relative="1" as="geometry">
            <mxPoint x="190" y="239.7" as="sourcePoint" />
            <mxPoint x="210" y="219.7" as="targetPoint" />
            <Array as="points">
              <mxPoint x="190" y="219.7" />
            </Array>
          </mxGeometry>
        </mxCell>
        <mxCell id="iKLxPPUA8jMq7jzH-3Aa-56" value="IEN" style="text;html=1;align=center;verticalAlign=middle;whiteSpace=wrap;rounded=0;" vertex="1" parent="1">
          <mxGeometry x="170" y="239.7" width="40" height="20" as="geometry" />
        </mxCell>
        <mxCell id="iKLxPPUA8jMq7jzH-3Aa-57" value="" style="endArrow=classic;html=1;rounded=0;" edge="1" parent="1">
          <mxGeometry width="50" height="50" relative="1" as="geometry">
            <mxPoint x="280" y="190" as="sourcePoint" />
            <mxPoint x="290" y="230" as="targetPoint" />
            <Array as="points">
              <mxPoint x="290" y="190" />
            </Array>
          </mxGeometry>
        </mxCell>
        <mxCell id="iKLxPPUA8jMq7jzH-3Aa-64" value="" style="shape=or;whiteSpace=wrap;html=1;" vertex="1" parent="1">
          <mxGeometry x="600" y="150" width="20" height="30" as="geometry" />
        </mxCell>
        <mxCell id="iKLxPPUA8jMq7jzH-3Aa-65" value="D&lt;div style=&quot;font-size: 10px;&quot;&gt;&lt;br style=&quot;font-size: 10px;&quot;&gt;&lt;/div&gt;&lt;div style=&quot;font-size: 10px;&quot;&gt;C&lt;/div&gt;" style="rounded=0;whiteSpace=wrap;html=1;fontSize=10;align=left;" vertex="1" parent="1">
          <mxGeometry x="540" y="150" width="30" height="41.41" as="geometry" />
        </mxCell>
        <mxCell id="iKLxPPUA8jMq7jzH-3Aa-66" value="" style="endArrow=none;html=1;rounded=0;" edge="1" parent="1">
          <mxGeometry width="50" height="50" relative="1" as="geometry">
            <mxPoint x="570" y="160" as="sourcePoint" />
            <mxPoint x="600" y="160" as="targetPoint" />
          </mxGeometry>
        </mxCell>
        <mxCell id="iKLxPPUA8jMq7jzH-3Aa-71" value="" style="endArrow=none;html=1;rounded=0;" edge="1" parent="1">
          <mxGeometry width="50" height="50" relative="1" as="geometry">
            <mxPoint x="520" y="199.99999999999997" as="sourcePoint" />
            <mxPoint x="540" y="179.99999999999997" as="targetPoint" />
            <Array as="points">
              <mxPoint x="520" y="179.99999999999997" />
            </Array>
          </mxGeometry>
        </mxCell>
        <mxCell id="iKLxPPUA8jMq7jzH-3Aa-72" value="OEN" style="text;html=1;align=center;verticalAlign=middle;whiteSpace=wrap;rounded=0;" vertex="1" parent="1">
          <mxGeometry x="500" y="200" width="40" height="20" as="geometry" />
        </mxCell>
        <mxCell id="iKLxPPUA8jMq7jzH-3Aa-73" value="" style="endArrow=classic;html=1;rounded=0;" edge="1" parent="1">
          <mxGeometry width="50" height="50" relative="1" as="geometry">
            <mxPoint x="250" y="160" as="sourcePoint" />
            <mxPoint x="540" y="160" as="targetPoint" />
          </mxGeometry>
        </mxCell>
        <mxCell id="iKLxPPUA8jMq7jzH-3Aa-74" value="" style="endArrow=classic;html=1;rounded=0;" edge="1" parent="1">
          <mxGeometry width="50" height="50" relative="1" as="geometry">
            <mxPoint x="490" y="300" as="sourcePoint" />
            <mxPoint x="490" y="160" as="targetPoint" />
          </mxGeometry>
        </mxCell>
        <mxCell id="iKLxPPUA8jMq7jzH-3Aa-75" value="" style="endArrow=none;html=1;rounded=0;" edge="1" parent="1">
          <mxGeometry width="50" height="50" relative="1" as="geometry">
            <mxPoint x="590" y="240" as="sourcePoint" />
            <mxPoint x="600" y="170" as="targetPoint" />
            <Array as="points">
              <mxPoint x="590" y="170" />
            </Array>
          </mxGeometry>
        </mxCell>
        <mxCell id="iKLxPPUA8jMq7jzH-3Aa-76" value="" style="endArrow=none;html=1;rounded=0;" edge="1" parent="1">
          <mxGeometry width="50" height="50" relative="1" as="geometry">
            <mxPoint x="620" y="164.92" as="sourcePoint" />
            <mxPoint x="640" y="164.92" as="targetPoint" />
          </mxGeometry>
        </mxCell>
        <mxCell id="iKLxPPUA8jMq7jzH-3Aa-77" value="" style="endArrow=none;html=1;rounded=0;" edge="1" parent="1">
          <mxGeometry width="50" height="50" relative="1" as="geometry">
            <mxPoint x="550" y="379.86" as="sourcePoint" />
            <mxPoint x="640" y="379.86" as="targetPoint" />
          </mxGeometry>
        </mxCell>
        <mxCell id="iKLxPPUA8jMq7jzH-3Aa-78" value="RR" style="text;html=1;align=center;verticalAlign=middle;whiteSpace=wrap;rounded=0;" vertex="1" parent="1">
          <mxGeometry x="640" y="365" width="30" height="30" as="geometry" />
        </mxCell>
        <mxCell id="iKLxPPUA8jMq7jzH-3Aa-79" value="WRT" style="text;html=1;align=center;verticalAlign=middle;whiteSpace=wrap;rounded=0;" vertex="1" parent="1">
          <mxGeometry x="640" y="150" width="40" height="30" as="geometry" />
        </mxCell>
        <mxCell id="iKLxPPUA8jMq7jzH-3Aa-80" value="I0" style="text;html=1;align=center;verticalAlign=middle;whiteSpace=wrap;rounded=0;" vertex="1" parent="1">
          <mxGeometry x="140" y="370" width="20" height="20" as="geometry" />
        </mxCell>
        <mxCell id="iKLxPPUA8jMq7jzH-3Aa-81" value="I1" style="text;html=1;align=center;verticalAlign=middle;whiteSpace=wrap;rounded=0;" vertex="1" parent="1">
          <mxGeometry x="140" y="390" width="20" height="20" as="geometry" />
        </mxCell>
        <mxCell id="iKLxPPUA8jMq7jzH-3Aa-82" value="I2" style="text;html=1;align=center;verticalAlign=middle;whiteSpace=wrap;rounded=0;" vertex="1" parent="1">
          <mxGeometry x="140" y="410" width="20" height="20" as="geometry" />
        </mxCell>
        <mxCell id="iKLxPPUA8jMq7jzH-3Aa-83" value="I3" style="text;html=1;align=center;verticalAlign=middle;whiteSpace=wrap;rounded=0;" vertex="1" parent="1">
          <mxGeometry x="140" y="430" width="20" height="20" as="geometry" />
        </mxCell>
        <mxCell id="iKLxPPUA8jMq7jzH-3Aa-84" value="RST" style="text;html=1;align=center;verticalAlign=middle;whiteSpace=wrap;rounded=0;" vertex="1" parent="1">
          <mxGeometry x="130" y="470" width="30" height="20" as="geometry" />
        </mxCell>
        <mxCell id="iKLxPPUA8jMq7jzH-3Aa-85" value="" style="endArrow=none;html=1;rounded=0;" edge="1" parent="1">
          <mxGeometry width="50" height="50" relative="1" as="geometry">
            <mxPoint x="560" y="420" as="sourcePoint" />
            <mxPoint x="590" y="420" as="targetPoint" />
            <Array as="points">
              <mxPoint x="570" y="420" />
              <mxPoint x="570" y="400" />
              <mxPoint x="580" y="400" />
              <mxPoint x="580" y="420" />
            </Array>
          </mxGeometry>
        </mxCell>
        <mxCell id="iKLxPPUA8jMq7jzH-3Aa-86" value="" style="endArrow=none;html=1;rounded=0;" edge="1" parent="1">
          <mxGeometry width="50" height="50" relative="1" as="geometry">
            <mxPoint x="600" y="409.93" as="sourcePoint" />
            <mxPoint x="640" y="409.93" as="targetPoint" />
          </mxGeometry>
        </mxCell>
        <mxCell id="iKLxPPUA8jMq7jzH-3Aa-87" value="JMP" style="text;html=1;align=center;verticalAlign=middle;whiteSpace=wrap;rounded=0;" vertex="1" parent="1">
          <mxGeometry x="640" y="400" width="30" height="20" as="geometry" />
        </mxCell>
        <mxCell id="iKLxPPUA8jMq7jzH-3Aa-88" value="" style="endArrow=none;html=1;rounded=0;" edge="1" parent="1">
          <mxGeometry width="50" height="50" relative="1" as="geometry">
            <mxPoint x="560" y="450" as="sourcePoint" />
            <mxPoint x="590" y="450" as="targetPoint" />
            <Array as="points">
              <mxPoint x="570" y="450" />
              <mxPoint x="570" y="430" />
              <mxPoint x="580" y="430" />
              <mxPoint x="580" y="450" />
            </Array>
          </mxGeometry>
        </mxCell>
        <mxCell id="iKLxPPUA8jMq7jzH-3Aa-89" value="" style="endArrow=none;html=1;rounded=0;" edge="1" parent="1">
          <mxGeometry width="50" height="50" relative="1" as="geometry">
            <mxPoint x="600" y="439.93" as="sourcePoint" />
            <mxPoint x="640" y="439.93" as="targetPoint" />
          </mxGeometry>
        </mxCell>
        <mxCell id="iKLxPPUA8jMq7jzH-3Aa-90" value="RTN" style="text;html=1;align=center;verticalAlign=middle;whiteSpace=wrap;rounded=0;" vertex="1" parent="1">
          <mxGeometry x="640" y="430" width="30" height="20" as="geometry" />
        </mxCell>
        <mxCell id="iKLxPPUA8jMq7jzH-3Aa-91" value="" style="endArrow=none;html=1;rounded=0;" edge="1" parent="1">
          <mxGeometry width="50" height="50" relative="1" as="geometry">
            <mxPoint x="560" y="480" as="sourcePoint" />
            <mxPoint x="590" y="480" as="targetPoint" />
            <Array as="points">
              <mxPoint x="570" y="480" />
              <mxPoint x="570" y="460" />
              <mxPoint x="580" y="460" />
              <mxPoint x="580" y="480" />
            </Array>
          </mxGeometry>
        </mxCell>
        <mxCell id="iKLxPPUA8jMq7jzH-3Aa-92" value="" style="endArrow=none;html=1;rounded=0;" edge="1" parent="1">
          <mxGeometry width="50" height="50" relative="1" as="geometry">
            <mxPoint x="600" y="469.93000000000006" as="sourcePoint" />
            <mxPoint x="640" y="469.93000000000006" as="targetPoint" />
          </mxGeometry>
        </mxCell>
        <mxCell id="iKLxPPUA8jMq7jzH-3Aa-93" value="FLAG 0" style="text;html=1;align=center;verticalAlign=middle;whiteSpace=wrap;rounded=0;" vertex="1" parent="1">
          <mxGeometry x="640" y="460" width="50" height="20" as="geometry" />
        </mxCell>
        <mxCell id="iKLxPPUA8jMq7jzH-3Aa-94" value="" style="endArrow=none;html=1;rounded=0;" edge="1" parent="1">
          <mxGeometry width="50" height="50" relative="1" as="geometry">
            <mxPoint x="560" y="510" as="sourcePoint" />
            <mxPoint x="590" y="510" as="targetPoint" />
            <Array as="points">
              <mxPoint x="570" y="510" />
              <mxPoint x="570" y="490" />
              <mxPoint x="580" y="490" />
              <mxPoint x="580" y="510" />
            </Array>
          </mxGeometry>
        </mxCell>
        <mxCell id="iKLxPPUA8jMq7jzH-3Aa-95" value="" style="endArrow=none;html=1;rounded=0;" edge="1" parent="1">
          <mxGeometry width="50" height="50" relative="1" as="geometry">
            <mxPoint x="600" y="499.93000000000006" as="sourcePoint" />
            <mxPoint x="640" y="499.93000000000006" as="targetPoint" />
          </mxGeometry>
        </mxCell>
        <mxCell id="iKLxPPUA8jMq7jzH-3Aa-96" value="FLAG F" style="text;html=1;align=center;verticalAlign=middle;whiteSpace=wrap;rounded=0;" vertex="1" parent="1">
          <mxGeometry x="640" y="490" width="50" height="20" as="geometry" />
        </mxCell>
      </root>
    </mxGraphModel>
  </diagram>
</mxfile>
